{"title":"Running.On.Empty.1982.DVDRip.720p.x264.Iou1","uid":8875440,"size":1466484591,"categoryP":"video","categoryS":"hd___movies","magnet":"?xt=urn:btih:c59946805a91e3cd7c7f3c2587dab1600b3b6a7f&amp;dn=Running.On.Empty.1982.DVDRip.720p.x264.Iou1&amp;tr=udp%3A%2F%2Ftracker.openbittorrent.com%3A80&amp;tr=udp%3A%2F%2Fopen.demonii.com%3A1337&amp;tr=udp%3A%2F%2Ftracker.coppersurfer.tk%3A6969&amp;tr=udp%3A%2F%2Fexodus.desync.com%3A6969","seeders":0,"leechers":1,"uploader":"jaybee211","files":-1,"time":1378184487,"description":"Genre                                    : Action/Drama/Sport\nFormat                                   : MPEG-4\nFormat profile                           : Base Media / Version 2\nCodec ID                                 : mp42\nFile size                                : 1.37 GiB\nDuration                                 : 1h 23mn\nOverall bit rate mode                    : Variable\nOverall bit rate                         : 2 354 Kbps\n\nVideo\nID                                       : 1\nFormat                                   : AVC\nFormat/Info                              : Advanced Video Codec\nFormat profile                           : &lt;a class=&quot;__cf_email__&quot; href=&quot;/cdn-cgi/l/email-protection&quot; data-cfemail=&quot;7830111f1038344b5649&quot;&gt;[email&amp;#160;protected]&lt;/a&gt;&lt;script cf-hash='f9e31' type=&quot;text/javascript&quot;&gt;\n/* &lt;![CDATA[ */!function(){try{var t=&quot;currentScript&quot;in document?document.currentScript:function(){for(var t=document.getElementsByTagName(&quot;script&quot;),e=t.length;e--;)if(t[e].getAttribute(&quot;cf-hash&quot;))return t[e]}();if(t&amp;&amp;t.previousSibling){var e,r,n,i,c=t.previousSibling,a=c.getAttribute(&quot;data-cfemail&quot;);if(a){for(e=&quot;&quot;,r=parseInt(a.substr(0,2),16),n=2;a.length-n;n+=2)i=parseInt(a.substr(n,2),16)^r,e+=String.fromCharCode(i);e=document.createTextNode(e),c.parentNode.replaceChild(e,c)}}}catch(u){}}();/* ]]&gt; */&lt;/script&gt;\nFormat settings, CABAC                   : Yes\nFormat settings, ReFrames                : 4 frames\nCodec ID                                 : avc1\nCodec ID/Info                            : Advanced Video Coding\nDuration                                 : 1h 23mn\nBit rate mode                            : Variable\nBit rate                                 : 2 037 Kbps\nMaximum bit rate                         : 7 323 Kbps\nWidth                                    : 1 280 pixels\nHeight                                   : 568 pixels\nDisplay aspect ratio                     : 2.25:1\nFrame rate mode                          : Constant\nFrame rate                               : 25.000 fps\nColor space                              : YUV\nChroma subsampling                       : 4:2:0\nBit depth                                : 8 bits\nScan type                                : Progressive\nBits/(Pixel*Frame)                       : 0.112\nStream size                              : 1.18 GiB (87%)\n\nAudio\nID                                       : 2\nFormat                                   : AAC\nFormat/Info                              : Advanced Audio Codec\nFormat profile                           : LC\nCodec ID                                 : 40\nDuration                                 : 1h 23mn\nBit rate mode                            : Variable\nBit rate                                 : 313 Kbps\nMaximum bit rate                         : 356 Kbps\nChannel(s)                               : 6 channels\nChannel positions                        : Front: L C R, Side: L R, LFE\nSampling rate                            : 48.0 KHz\nCompression mode                         : Lossy\nDelay relative to video                  : 40ms\nStream size                              : 186 MiB (13%)\nLanguage                                 : English\nSubtitles                                : None\n\nIMDB. &lt;a href=&quot; http://www.imdb.com/title/tt0084616/&quot; rel=&quot;nofollow&quot; target=&quot;_NEW&quot;&gt; http://www.imdb.com/title/tt0084616/&lt;/a&gt;\n\nStoryline.\nThis film collects just what it was like to be in Australia in the early 80's. It's about hot cars, hot chicks and hot times. The story begins when two local street racers agree to race Fox, the faster street drag racer there is. After two of the three race rounds, the race is no longer a game, but more of a survival!\n\nScreens. &lt;a href=&quot; http://bayimg.com/BApLjaaEF&quot; rel=&quot;nofollow&quot; target=&quot;_NEW&quot;&gt; http://bayimg.com/BApLjaaEF&lt;/a&gt;\n\n         &lt;a href=&quot; http://bayimg.com/capLcAAef&quot; rel=&quot;nofollow&quot; target=&quot;_NEW&quot;&gt; http://bayimg.com/capLcAAef&lt;/a&gt;\n\n         &lt;a href=&quot; http://bayimg.com/CapLIAAEf&quot; rel=&quot;nofollow&quot; target=&quot;_NEW&quot;&gt; http://bayimg.com/CapLIAAEf&lt;/a&gt;\n\n         &lt;a href=&quot; http://bayimg.com/CAPLlaAEF&quot; rel=&quot;nofollow&quot; target=&quot;_NEW&quot;&gt; http://bayimg.com/CAPLlaAEF&lt;/a&gt;\n\n         &lt;a href=&quot; http://bayimg.com/caploAaEf&quot; rel=&quot;nofollow&quot; target=&quot;_NEW&quot;&gt; http://bayimg.com/caploAaEf&lt;/a&gt;\n\n         &lt;a href=&quot; http://bayimg.com/daplDAaEf&quot; rel=&quot;nofollow&quot; target=&quot;_NEW&quot;&gt; http://bayimg.com/daplDAaEf&lt;/a&gt;\n\nCover. &lt;a href=&quot; http://bayimg.com/bapleAaEF&quot; rel=&quot;nofollow&quot; target=&quot;_NEW&quot;&gt; http://bayimg.com/bapleAaEF&lt;/a&gt;\n\nEnjoy.","torrent":{"xt":"urn:btih:c59946805a91e3cd7c7f3c2587dab1600b3b6a7f","amp;dn":"Running.On.Empty.1982.DVDRip.720p.x264.Iou1","amp;tr":["udp%3A%2F%2Ftracker.openbittorrent.com%3A80","udp%3A%2F%2Fopen.demonii.com%3A1337","udp%3A%2F%2Ftracker.coppersurfer.tk%3A6969","udp%3A%2F%2Fexodus.desync.com%3A6969"],"infoHash":"c59946805a91e3cd7c7f3c2587dab1600b3b6a7f","infoHashBuffer":{"type":"Buffer","data":[197,153,70,128,90,145,227,205,124,127,60,37,135,218,177,96,11,59,106,127]},"announce":[],"urlList":[]}}